<?xml version="1.0" encoding="UTF-8" standalone="no"?>
<svg
   xmlns:dc="http://purl.org/dc/elements/1.1/"
   xmlns:cc="http://creativecommons.org/ns#"
   xmlns:rdf="http://www.w3.org/1999/02/22-rdf-syntax-ns#"
   xmlns:svg="http://www.w3.org/2000/svg"
   xmlns="http://www.w3.org/2000/svg"
   xmlns:sodipodi="http://sodipodi.sourceforge.net/DTD/sodipodi-0.dtd"
   xmlns:inkscape="http://www.inkscape.org/namespaces/inkscape"
   viewBox="0 0 512 512"
   version="1.1"
   id="svg60"
   sodipodi:docname="bug-solid.svg"
   inkscape:version="0.92.5 (2060ec1f9f, 2020-04-08)">
  <metadata
     id="metadata66">
    <rdf:RDF>
      <cc:Work
         rdf:about="">
        <dc:format>image/svg+xml</dc:format>
        <dc:type
           rdf:resource="http://purl.org/dc/dcmitype/StillImage" />
      </cc:Work>
    </rdf:RDF>
  </metadata>
  <defs
     id="defs64" />
  <sodipodi:namedview
     pagecolor="#ffffff"
     bordercolor="#666666"
     borderopacity="1"
     objecttolerance="10"
     gridtolerance="10"
     guidetolerance="10"
     inkscape:pageopacity="0"
     inkscape:pageshadow="2"
     inkscape:window-width="1848"
     inkscape:window-height="1016"
     id="namedview62"
     showgrid="false"
     inkscape:zoom="1.6367188"
     inkscape:cx="256"
     inkscape:cy="256"
     inkscape:window-x="72"
     inkscape:window-y="27"
     inkscape:window-maximized="1"
     inkscape:current-layer="svg60" />
  <!--! Font Awesome Pro 6.1.1 by @fontawesome - https://fontawesome.com License - https://fontawesome.com/license (Commercial License) Copyright 2022 Fonticons, Inc. -->
  <path
     d="M352 96V99.56C352 115.3 339.3 128 323.6 128H188.4C172.7 128 159.1 115.3 159.1 99.56V96C159.1 42.98 202.1 0 255.1 0C309 0 352 42.98 352 96zM41.37 105.4C53.87 92.88 74.13 92.88 86.63 105.4L150.6 169.4C151.3 170 151.9 170.7 152.5 171.4C166.8 164.1 182.9 160 199.1 160H312C329.1 160 345.2 164.1 359.5 171.4C360.1 170.7 360.7 170 361.4 169.4L425.4 105.4C437.9 92.88 458.1 92.88 470.6 105.4C483.1 117.9 483.1 138.1 470.6 150.6L406.6 214.6C405.1 215.3 405.3 215.9 404.6 216.5C410.7 228.5 414.6 241.9 415.7 256H480C497.7 256 512 270.3 512 288C512 305.7 497.7 320 480 320H416C416 344.6 410.5 367.8 400.6 388.6C402.7 389.9 404.8 391.5 406.6 393.4L470.6 457.4C483.1 469.9 483.1 490.1 470.6 502.6C458.1 515.1 437.9 515.1 425.4 502.6L362.3 439.6C337.8 461.4 306.5 475.8 272 479.2V240C272 231.2 264.8 224 255.1 224C247.2 224 239.1 231.2 239.1 240V479.2C205.5 475.8 174.2 461.4 149.7 439.6L86.63 502.6C74.13 515.1 53.87 515.1 41.37 502.6C28.88 490.1 28.88 469.9 41.37 457.4L105.4 393.4C107.2 391.5 109.3 389.9 111.4 388.6C101.5 367.8 96 344.6 96 320H32C14.33 320 0 305.7 0 288C0 270.3 14.33 256 32 256H96.3C97.38 241.9 101.3 228.5 107.4 216.5C106.7 215.9 106 215.3 105.4 214.6L41.37 150.6C28.88 138.1 28.88 117.9 41.37 105.4H41.37z"
     id="path58" />
  <path
     style="fill:#ff0000;stroke-width:0.61097854"
     d="m 56.894867,510.79836 c -5.495188,-1.33132 -10.13106,-3.89548 -14.539616,-8.04203 -10.352649,-9.73736 -12.806769,-24.52611 -6.258532,-37.71448 1.184926,-2.38649 9.84902,-11.40832 38.43586,-40.02289 l 36.906101,-36.94191 -2.45782,-5.73007 C 101.69975,365.37208 97.646465,347.5269 96.429383,327.08735 l -0.427471,-7.179 -32.451556,-0.004 C 45.688087,319.90287 29.450737,319.6365 27.432936,319.31234 10.043623,316.51867 -2.09735,300.04394 0.73785072,283.08836 2.809448,270.69942 12.223049,260.4747 24.50219,257.27639 c 2.893291,-0.75361 9.397401,-0.9098 37.884888,-0.9098 h 34.39192 v -2.03157 c 0,-6.9325 4.476352,-23.73971 8.835602,-33.17473 l 2.19966,-4.76089 -34.770666,-34.85173 C 50.908505,159.36098 37.665229,145.63336 36.600669,143.77192 c -2.566371,-4.48744 -4.034606,-9.93996 -4.066022,-15.09984 -0.03888,-6.38616 0.482224,-8.7489 3.166691,-14.358 7.72495,-16.141003 26.594154,-22.432893 42.901061,-14.30525 3.328568,1.65902 8.299825,6.37502 38.738581,36.74949 l 34.91998,34.84623 6.62656,-2.79327 c 7.35812,-3.10166 14.6123,-5.33371 22.66579,-6.97412 4.94144,-1.00651 10.58098,-1.08871 74.69108,-1.08871 h 69.34606 l 6.27685,1.38919 c 8.11968,1.79704 14.93292,3.96495 22.04143,7.01338 l 5.71208,2.44958 34.918,-34.79551 c 29.32852,-29.22565 35.5139,-35.10413 38.64073,-36.72345 19.56585,-10.132799 42.28469,1.39123 46.11598,23.39213 1.04236,5.98568 10e-4,12.09699 -3.17553,18.63983 -2.50547,5.16029 -2.74166,5.41385 -37.13922,39.87077 -25.3228,25.3665 -34.48655,34.91183 -34.12921,35.55037 0.26868,0.48011 1.68071,3.84614 3.13783,7.48007 3.17789,7.92533 5.5781,16.846 6.54506,24.32552 0.391,3.02435 0.80677,5.84249 0.92394,6.26253 0.16716,0.59925 7.51367,0.76373 34.11145,0.76373 22.38737,0 34.99786,0.22927 37.13613,0.67518 8.40009,1.75173 17.8785,9.01539 21.44253,16.43222 8.73304,18.17367 0.008,38.6979 -19.12129,44.97976 -3.04813,1.00097 -6.60216,1.12279 -38.2475,1.311 l -34.88711,0.20749 -0.40103,7.50153 c -1.04696,19.58413 -4.98992,37.01791 -12.34009,54.56162 l -2.74581,6.55383 2.0005,1.48666 c 1.10028,0.81766 17.56366,17.05134 36.58528,36.07484 33.69774,33.70108 34.64803,34.71593 37.05168,39.56911 3.2217,6.50491 4.25021,12.25512 3.29491,18.42127 -2.05728,13.27903 -11.03147,23.20757 -23.92361,26.46772 -8.05388,2.03665 -16.17379,0.83528 -23.77038,-3.51695 -1.68573,-0.96578 -15.92041,-14.68903 -35.80383,-34.51744 -18.15309,-18.10286 -33.21382,-32.91429 -33.46832,-32.91429 -0.25449,0 -2.86068,1.95149 -5.79153,4.33665 -12.95572,10.54349 -32.67069,21.55484 -47.90236,26.75479 -11.1963,3.82231 -29.82524,8.01119 -35.62769,8.01119 -0.81688,0 -0.92116,-13.63325 -0.92646,-121.12649 l -0.006,-121.12649 -1.44665,-3.0549 c -5.10273,-10.77537 -19.47448,-12.86801 -27.46951,-3.99976 -4.7901,5.31327 -4.35118,-7.10286 -4.53331,128.23706 l -0.16309,121.1824 -3.19729,-0.41044 c -28.69025,-3.68299 -57.6291,-16.30716 -80.84481,-35.26749 -2.38163,-1.94509 -4.57546,-3.53652 -4.87518,-3.53652 -0.29971,0 -15.53488,14.95638 -33.85592,33.23641 -29.255147,29.18965 -33.785455,33.473 -37.207809,35.17954 -6.932907,3.45706 -14.608795,4.42315 -21.629314,2.72227 z"
     id="path68"
     inkscape:connector-curvature="0" />
  <path
     style="fill:#ff0000;stroke-width:0.61097854"
     d="m 179.73989,126.26778 c -6.41267,-2.05021 -11.97137,-6.14561 -15.44542,-11.37948 -4.39642,-6.62349 -5.43491,-12.29802 -4.55645,-24.897463 0.32356,-4.640797 1.11959,-10.872131 1.76896,-13.847413 7.24235,-33.183262 31.34094,-60.121393 63.38944,-70.8586267 10.90263,-3.6527191 16.39917,-4.50191594 29.51504,-4.55997851 13.76272,-0.0609262 19.81448,0.81727501 31.17254,4.52360701 32.75489,10.6884852 56.87364,37.6364592 64.25823,71.7959652 1.76189,8.150087 2.23106,25.084249 0.83021,29.964869 -2.65253,9.24148 -9.6654,16.46451 -18.72229,19.28332 -3.56476,1.10949 -6.72903,1.15618 -76.21842,1.12468 -68.48632,-0.031 -72.69259,-0.0947 -75.99184,-1.14948 z"
     id="path70"
     inkscape:connector-curvature="0" />
</svg>
