<?xml version="1.0" encoding="UTF-8" standalone="no"?>
<svg
   xmlns:dc="http://purl.org/dc/elements/1.1/"
   xmlns:cc="http://creativecommons.org/ns#"
   xmlns:rdf="http://www.w3.org/1999/02/22-rdf-syntax-ns#"
   xmlns:svg="http://www.w3.org/2000/svg"
   xmlns="http://www.w3.org/2000/svg"
   xmlns:sodipodi="http://sodipodi.sourceforge.net/DTD/sodipodi-0.dtd"
   xmlns:inkscape="http://www.inkscape.org/namespaces/inkscape"
   viewBox="0 0 512 512"
   version="1.1"
   id="svg60"
   sodipodi:docname="circle-check-solid.svg"
   inkscape:version="0.92.5 (2060ec1f9f, 2020-04-08)">
  <metadata
     id="metadata66">
    <rdf:RDF>
      <cc:Work
         rdf:about="">
        <dc:format>image/svg+xml</dc:format>
        <dc:type
           rdf:resource="http://purl.org/dc/dcmitype/StillImage" />
      </cc:Work>
    </rdf:RDF>
  </metadata>
  <defs
     id="defs64" />
  <sodipodi:namedview
     pagecolor="#ffffff"
     bordercolor="#666666"
     borderopacity="1"
     objecttolerance="10"
     gridtolerance="10"
     guidetolerance="10"
     inkscape:pageopacity="0"
     inkscape:pageshadow="2"
     inkscape:window-width="1848"
     inkscape:window-height="1016"
     id="namedview62"
     showgrid="false"
     inkscape:zoom="1.6367188"
     inkscape:cx="256"
     inkscape:cy="256"
     inkscape:window-x="72"
     inkscape:window-y="27"
     inkscape:window-maximized="1"
     inkscape:current-layer="svg60" />
  <!--! Font Awesome Pro 6.1.1 by @fontawesome - https://fontawesome.com License - https://fontawesome.com/license (Commercial License) Copyright 2022 Fonticons, Inc. -->
  <path
     d="M0 256C0 114.6 114.6 0 256 0C397.4 0 512 114.6 512 256C512 397.4 397.4 512 256 512C114.6 512 0 397.4 0 256zM371.8 211.8C382.7 200.9 382.7 183.1 371.8 172.2C360.9 161.3 343.1 161.3 332.2 172.2L224 280.4L179.8 236.2C168.9 225.3 151.1 225.3 140.2 236.2C129.3 247.1 129.3 264.9 140.2 275.8L204.2 339.8C215.1 350.7 232.9 350.7 243.8 339.8L371.8 211.8z"
     id="path58" />
  <path
     style="fill:#008000;stroke-width:0.61097854"
     d="M 238.26646,511.14662 C 202.1806,508.32072 169.6259,499.15991 138.62833,483.10871 90.633708,458.25607 51.56157,418.68736 27.30398,370.36951 -8.4763341,299.09994 -8.6454212,213.74182 26.852957,142.68502 39.985517,116.39768 54.389378,96.439397 75.354578,75.480183 91.945198,58.894292 105.72435,48.062667 124.85443,36.56893 166.39682,11.609437 212.99553,-0.62574528 262.04869,0.54654595 283.00265,1.0473119 300.24221,3.3746649 319.48067,8.2999043 417.42788,33.375384 491.88222,114.60447 508.21639,214.20907 c 2.69996,16.46412 3.10533,21.96488 3.08425,41.85203 -0.0262,24.73259 -1.7369,39.57207 -7.07472,61.3708 -14.83944,60.60162 -53.0014,115.22031 -105.01255,150.29756 -34.97799,23.58977 -74.14046,37.97098 -115.79818,42.5233 -10.21652,1.11645 -35.83062,1.62356 -45.14873,0.89386 z m -5.92654,-164.28434 c 2.03413,-0.63309 4.87677,-1.85198 6.31697,-2.70866 1.44019,-0.85666 32.8961,-31.88808 69.90202,-68.9587 72.61715,-72.74411 69.30327,-69.13507 71.03313,-77.3596 1.98359,-9.43081 -0.87285,-18.88765 -7.79104,-25.79393 -9.33296,-9.31687 -23.58508,-10.84844 -35.21293,-3.78405 -1.34416,0.81663 -27.25504,26.2621 -57.57974,56.54549 l -55.13583,55.06071 -23.6804,-23.62126 c -26.07961,-26.01447 -26.58734,-26.4134 -35.68704,-28.03961 -18.43464,-3.29445 -35.35762,13.41343 -32.36979,31.95836 1.53944,9.55507 0.83134,8.70117 38.80371,46.79367 18.85879,18.91845 35.67697,35.32421 37.37374,36.45725 6.80269,4.54257 16.18768,5.89027 24.0272,3.45033 z"
     id="path68"
     inkscape:connector-curvature="0" />
</svg>
